<?xml version="1.0" encoding="UTF-8"?>
<svg width="452px" height="200px" viewBox="0 0 452 200" version="1.1" xmlns="http://www.w3.org/2000/svg" xmlns:xlink="http://www.w3.org/1999/xlink">
    <title>laying-laptop</title>
    <defs>
        <linearGradient x1="35.4893189%" y1="24.6120094%" x2="76.4963259%" y2="77.8646857%" id="linearGradient-1">
            <stop stop-color="#AA80F9" offset="0%"></stop>
            <stop stop-color="#6165D7" offset="100%"></stop>
        </linearGradient>
    </defs>
    <g id="Page-1" stroke="none" stroke-width="1" fill="none" fill-rule="evenodd">
        <g id="Desktop-1920" transform="translate(-251.000000, -2583.000000)">
            <g id="2-Row-Section" transform="translate(0.000000, 2464.000000)">
                <g id="laying-laptop" transform="translate(252.000000, 120.000000)">
                    <path d="M420.266152,58.352459 C418.185621,57.1445515 416.95463,54.8751739 417.076663,52.4725169 C417.219865,49.8688525 417.623433,46.831244 418.712633,46.5405014 C420.687078,46.0067502 432.195275,54.1648987 436.716972,57.9228544 C441.238669,61.68081 449.735294,70.4768563 449.648505,73.1108968 C449.566056,75.2285439 428.50675,63.1562199 420.266152,58.352459 Z" id="Path" stroke="#03243B" stroke-width="2" fill="#03243B" fill-rule="nonzero" stroke-linejoin="round"></path>
                    <path d="M415.848602,71.5486982 L418.756027,59.5110897 C418.981935,58.5712515 419.613916,57.7804586 420.480811,57.3528798 C421.347706,56.9253011 422.359807,56.9051833 423.243009,57.2979749 L423.243009,57.2979749 C424.27167,57.7587808 424.99123,58.7160082 425.148023,59.8322083 L427.356798,75.9402122 L415.848602,71.5486982 Z" id="Path" stroke="#03243B" stroke-width="2" fill="#FFFFFF" fill-rule="nonzero" stroke-linejoin="round"></path>
                    <g id="Group" transform="translate(298.119576, 45.130183)" fill-rule="nonzero" stroke="#03243B" stroke-linejoin="round" stroke-width="2">
                        <polygon id="Path" fill="#FFFFFF" points="68.6152363 25.9324976 69.8259402 13.4913211 76.0617165 12.0593057 78.3008679 25.8500482"></polygon>
                        <path d="M68.1769527,19.2497589 C71.5747348,23.5891996 86.1422372,14.3982642 92.4040501,10.792189 C96.4831244,8.44455159 98.2796528,4.63452266 97.9541948,1.86162006 C97.6287367,-0.911282546 91.5578592,0.12584378 85.8037608,3.27627772 C82.5969142,5.03809065 74.3519769,7.51157184 70.1470588,10.7965284 C66.7926712,13.4088717 66.4324976,17.0106075 68.1769527,19.2497589 Z" id="Path" fill="#03243B"></path>
                        <path d="M13.0920926,117.195275 C5.3635487,109.258438 -2.66875603,96.1880424 0.972034716,91.5925747 C6.66538091,84.4281581 33.5178399,107.30135 50.1248795,98.9956606 C59.671649,94.2222758 68.6065574,77.7324012 62.340405,23.3461909 L79.6981678,23.1726133 C84.7492768,35.1581485 91.3669238,55.1239151 91.0327869,80.1755063 C91.0327869,80.5834137 91.0327869,81.1996143 90.9980714,81.9937319 C90.7507232,93.770974 89.9956606,120.983607 75.6668274,132.036162 C59.2637416,144.689971 28.7965284,133.320636 13.0920926,117.195275 Z" id="Path" fill="#F4F8FD"></path>
                    </g>
                    <path d="M285.934426,126.77676 C289.323529,125.22758 292.248312,124.60704 295.181774,125.22758 C302.940694,126.85487 304.75892,135.824494 311.845227,143.913211 C320.723722,154.050145 332.791707,157.000964 336.306654,157.855834 C357.695757,163.0892 376.351013,151.732883 379.644648,149.610897 L380.391032,149.129219 C416.673095,125.418515 411.726133,70.1036644 411.43973,67.3611379 L429.886692,70.5679846 C432.455641,75.840405 451.39296,116.370781 430.906461,156.011572 C428.059788,161.522662 418.395853,179.639826 397.670685,190.883317 C376.407425,202.413211 361.848602,196.776278 309.983607,194.441659 C249.096914,191.694793 234.729026,197.913211 229.816779,188.366442 C220.408872,170.158149 271.349566,133.45082 285.934426,126.77676 Z" id="Path" stroke="#03243B" stroke-width="2" fill="#03243B" fill-rule="nonzero"></path>
                    <path d="M163.037126,117.746384 C155.152363,110.369335 151.255545,98.8958534 151.255545,98.8958534 C148.217936,91.6706847 146.421408,87.4050145 147.49325,82.2324012 C149.467695,72.729026 160.029894,65.3823529 169.715526,64.7270974 C178.936837,64.0978785 181.488428,69.9344262 191.933462,72.4686596 C209.135005,76.6345227 225.347155,66.3934426 228.519286,64.4059788 C248.801832,51.6046287 242.496625,35.123433 261.125844,17.5400193 C262.427676,16.3206365 286.081967,-5.36788814 314.197203,1.28881389 C338.103182,6.94310511 357.457088,31.243973 356.615236,56.4778206 C355.664899,84.87946 329.341851,108.117165 308.135005,110.677435 C299.890068,111.675506 289.54918,109.891996 277.498554,116.752652 C270.173578,120.914176 267.305207,125.375121 263.699132,128.87271 C242.422854,149.489392 189.486017,142.481196 163.037126,117.746384 Z" id="Path" stroke="#03243B" stroke-width="2" fill="#03243B" fill-rule="nonzero" stroke-linejoin="round"></path>
                    <path d="M161.505304,121.795082 C157.439248,122.788814 157.686596,128.243491 148.595468,139.920926 C143.822083,146.061234 139.916586,151.047252 134.479267,154.462392 C117.438284,165.133076 99.364513,151.515911 89.2536162,162.052073 C86.5371263,164.881389 83.5515911,170.336066 85.2135969,174.506268 C88.2512054,182.113308 104.415622,179.6919 159.613308,177.543877 C182.026519,176.675988 187.463838,176.754098 190.588235,172.158631 C200.338959,157.8081 173.195757,118.931051 161.505304,121.795082 Z" id="Path" stroke="#03243B" stroke-width="2" fill="#F4F8FD" fill-rule="nonzero" stroke-linejoin="round"></path>
                    <path d="M95.9921527,174.010079 L183.235199,178.251895 C184.119687,178.29596 184.926857,178.769374 185.396245,179.51857 L185.396245,179.51857 L187.83575,183.425249 C188.018606,183.717172 188.1135,184.047622 188.11974,184.379738 C188.125981,184.711854 188.043567,185.045635 187.871806,185.344221 C187.700045,185.642807 187.452942,185.881852 187.16271,186.043423 C186.872478,186.204994 186.539116,186.289091 186.200071,186.277967 L186.200071,186.277967 L94.0939536,182.769366 L95.9921527,174.010079 Z" id="Path" stroke="#03243B" stroke-width="2" fill="#66A8F7" fill-rule="nonzero"></path>
                    <path d="M3.58003857,123.917068 L94.5998071,125.678881 C97.2921559,125.731767 99.7574308,127.199389 101.087271,129.540984 L132.600289,184.981678 L36.472999,181.154291 C33.8348492,181.051683 31.4270703,179.62334 30.072324,177.357281 L0.867888139,128.577628 C0.292897027,127.615294 0.285977527,126.416592 0.849820557,125.447684 C1.41366359,124.478776 2.45927907,123.892583 3.58003857,123.917068 Z" id="Path" stroke="#03243B" stroke-width="2" fill="#66A8F7" fill-rule="nonzero" stroke-linejoin="round"></path>
                    <path d="M178.381389,105.535198 C171.125844,107.904532 163.492768,110.308582 159.083896,116.978303 C150.838959,129.454195 155.937801,153.499036 166.460945,167.476374 C173.837994,177.261813 184.430569,180.416586 205.337994,186.331244 C232.433462,193.994696 245.772903,197.362102 256.699614,190.7054 C268.685149,183.4108 263.985535,172.514465 282.241562,148.612825 C295.884764,130.760366 307.458052,125.140791 305.796046,118.987464 C303.943105,112.135487 287.822083,112.478303 281.673095,112.612825 C257.502411,113.129219 255.111379,124.055931 239.675988,122.35487 C221.558824,120.354388 219.606075,104.723722 197.392478,103.165863 C190.962335,102.735953 184.509316,103.540187 178.381389,105.535198 Z" id="Path" fill="url(#linearGradient-1)" fill-rule="nonzero"></path>
                    <path d="M178.381389,105.535198 C171.125844,107.904532 163.492768,110.308582 159.083896,116.978303 C150.838959,129.454195 155.937801,153.499036 166.460945,167.476374 C173.837994,177.261813 184.430569,180.416586 205.337994,186.331244 C232.433462,193.994696 245.772903,197.362102 256.699614,190.7054 C268.685149,183.4108 263.985535,172.514465 282.241562,148.612825 C295.884764,130.760366 307.458052,125.140791 305.796046,118.987464 C303.943105,112.135487 287.822083,112.478303 281.673095,112.612825 C257.502411,113.129219 255.111379,124.055931 239.675988,122.35487 C221.558824,120.354388 219.606075,104.723722 197.392478,103.165863 C190.962335,102.735953 184.509316,103.540187 178.381389,105.535198 Z" id="Path" stroke="#03243B" stroke-width="2" fill="#FFFFFF" fill-rule="nonzero" stroke-linejoin="round"></path>
                    <path d="M171.668274,108.993732 C169.598361,110.035198 166.11379,111.857763 164.807618,114.413693 C162.425265,119.061234 166.34812,128.0135 171.407907,129.059306 C175.582449,129.927194 177.483124,124.763259 188.236258,116.939248 C198.008679,109.818226 204.391996,108.260366 203.979749,105.964802 C203.715043,104.480714 200.686114,102.827387 187.581003,102.49325 C185.671649,99.7984571 180.551109,95.2203472 178.641755,92.5125362 C175.764706,92.9464802 176.098843,95.3114754 173.221794,95.7714561 C177.786885,102.020251 177.83028,104.840887 176.949373,106.255545 C176.181292,107.500964 174.914176,107.366442 171.668274,108.993732 Z" id="Path" stroke="#03243B" stroke-width="2" fill="#FFFFFF" fill-rule="nonzero" stroke-linejoin="round"></path>
                    <path d="M179.522662,92.8640309 C179.522662,92.8640309 179.544359,100.47107 173.469142,102.944552 C168.031823,105.162006 160.884764,92.3953713 163.054484,88.2512054 C163.770492,86.8712633 165.918515,85.2483124 167.997107,84.8707811 C169.455159,84.6104147 175.521697,84.5713597 177.240116,89.3360656 C177.75217,87.8302797 178.767599,86.8539055 179.822083,86.8452266 C180.191917,86.8590922 180.550153,86.9780024 180.85487,87.1880424 C182.256509,88.168756 181.844262,90.4946962 179.522662,92.8640309 Z" id="Path" stroke="#03243B" stroke-width="2" fill="#FFFFFF" fill-rule="nonzero" stroke-linejoin="round"></path>
                    <g id="Group" transform="translate(146.239151, 105.882353)" fill="#FFFFFF" fill-rule="nonzero" stroke="#03243B" stroke-linejoin="round" stroke-width="2">
                        <path d="M0.329797493,70.1253616 C-0.794117647,68.7931533 2.95515911,61.6287367 9.44262295,59.159595 C16.2859209,56.5559306 22.864513,60.4614272 23.927676,61.1080039 L23.1769527,66.2111861 C18.9145029,65.854133 14.6223836,66.179338 10.4623915,67.1745419 C4.14416586,68.6933462 1.13693346,71.0800386 0.329797493,70.1253616 Z" id="Path"></path>
                        <path d="M65.0711112,0.117492017 C72.97904,-0.287003992 91.6352911,11.3634315 100.54918,28.2237223 C102.892478,32.6542912 113.038091,53.4792671 102.905497,70.316297 C91.3712633,89.4705882 60.9648023,91.1456123 41.6542912,81.6422372 C32.5414658,77.159595 26.7526519,70.5983607 23.4590164,66.1157184 L23.4763742,59.5371263 C28.3792641,59.5371263 77.0352429,70.8017867 77.0352429,49.4696239 C77.0352429,32.6871738 60.8962527,25.4518367 60.8962527,25.4518367" id="Path" stroke-linecap="round"></path>
                    </g>
                    <path d="M274.931537,160.120276 C326.427183,184.778867 362.590884,190.860016 383.42264,178.363726 C412.388509,160.988045 426.022433,125.034924 424.324411,70.5043631" id="Path-100" stroke="#FFFFFF" stroke-linecap="round" stroke-linejoin="round"></path>
                    <path d="M186.958239,102.142395 C183.88985,104.9479 180.790457,107.781799 177.659838,110.644296 C172.665707,115.210704 181.191756,115.945598 179.460452,111.641435 C178.738658,109.846998 177.486232,108.314813 176.499122,106.651502" id="Path" stroke="#03243B" stroke-linecap="round" stroke-linejoin="round"></path>
                    <circle id="Oval" stroke="#03243B" fill="#03243B" stroke-linejoin="round" cx="171.841851" cy="143.635487" r="1"></circle>
                    <circle id="Oval-Copy-10" stroke="#03243B" fill="#03243B" stroke-linejoin="round" cx="171.841851" cy="154.484089" r="1"></circle>
                    <path d="M157.254138,121.012938 C157.740323,123.423654 159.268713,126.114273 160.855947,129.154258 C164.059824,135.290553 167.581751,140.426897 173.970042,139.027374 C184.720423,136.672221 184.346001,130.160611 195.133291,121.644906 C200.741912,117.217346 203.957985,117.108317 207.151256,114.001852 C207.983351,113.192376 208.813898,112.179373 209.684826,110.833397 C210.605152,109.411077 211.110627,107.838996 211.20125,106.117154" id="Path" stroke="#03243B"></path>
                </g>
            </g>
        </g>
    </g>
</svg>